#!OML:ASF F:\VICON\USERDATA\INSTALL\rory3\rory3.ASF
:FULLY-SPECIFIED
:DEGREES
723
root -1.48881 29.0326 -5.56149 5.18658 4.25183 3.49882
lowerback 2.45604 1.08732 -2.10277
upperback 0.0134236 1.41315 1.6087
thorax -1.45468 0.726858 2.77867
lowerneck -13.1947 1.87124 -9.39954
upperneck 42.1084 6.87836 -1.17168
head 17.6176 1.21422 2.398
rclavicle 1.88845e-014 1.59028e-015
rhumerus -30.5505 -8.34361 -76.8401
rradius 34.9711
rwrist 19.3376
rhand -20.8305 2.93718
rfingers 7.12502
rthumb 5.53803 -26.9705
lclavicle 1.88845e-014 1.59028e-015
lhumerus -36.4029 16.919 79.3546
lradius 27.7806
lwrist -7.55052
lhand -12.1413 26.8129
lfingers 7.12502
lthumb 13.9209 56.3269
rfemur -10.0754 -3.4193 18.1655
rtibia 39.3463
rfoot -20.5847 0.604053
rtoes 2.47443
lfemur -14.9436 -0.714091 -27.6612
ltibia 24.4751
lfoot -10.9121 -0.790306
ltoes -8.55861
724
root -1.46672 29.0336 -5.52493 5.09014 4.60031 3.52651
lowerback 2.43484 0.962211 -2.1832
upperback 0.106767 1.24484 1.6556
thorax -1.33893 0.640754 2.88016
lowerneck -13.1844 1.90097 -9.3235
upperneck 42.0836 6.91873 -1.22828
head 17.6046 1.23671 2.36504
rclavicle 1.98785e-015 -9.54166e-015
rhumerus -30.6028 -8.32372 -76.8259
rradius 35.0936
rwrist 19.5823
rhand -20.7711 2.22437
rfingers 7.12502
rthumb 5.59537 -27.6818
lclavicle 1.98785e-015 -9.54166e-015
lhumerus -36.2203 16.6995 79.5663
lradius 28.0281
lwrist -7.39997
lhand -12.0771 27.1116
lfingers 7.12502
lthumb 13.9827 56.6213
rfemur -10.6 -3.93741 17.9718
rtibia 40.8616
rfoot -20.1474 1.02787
rtoes 1.04277
lfemur -14.6129 -0.871951 -27.7461
ltibia 24.3778
lfoot -11.0109 -1.00106
ltoes -7.88841
725
root -1.45142 29.0306 -5.4992 4.78627 4.94749 3.51929
lowerback 2.77028 0.807656 -2.29479
upperback 0.252979 1.03086 1.74043
thorax -1.36619 0.533283 3.03541
lowerneck -13.357 1.91661 -9.42757
upperneck 42.1494 6.9747 -1.15297
head 17.6767 1.2442 2.43369
rclavicle 1.76918e-014 -2.22639e-014
rhumerus -30.4156 -8.6365 -76.749
rradius 34.8764
rwrist 20.0207
rhand -20.2587 1.87029
rfingers 7.12502
rthumb 6.09008 -28.0222
lclavicle 1.76918e-014 -2.22639e-014
lhumerus -35.9453 16.6322 79.7417
lradius 28.2235
lwrist -7.24249
lhand -12.0841 27.5999
lfingers 7.12502
lthumb 13.976 57.1101
rfemur -11.0113 -4.37665 17.8535
rtibia 42.4985
rfoot -19.4576 1.14368
rtoes -0.188283
lfemur -14.1257 -0.982839 -27.7739
ltibia 24.2269
lfoot -11.0259 -1.18546
ltoes -8.19833
726
root -1.43953 29.024 -5.47614 4.66661 4.87104 3.65825
lowerback 3.02617 0.82771 -2.62765
upperback 0.298924 1.04239 1.76165
thorax -1.46964 0.542117 3.24167
lowerneck -13.4905 1.8802 -9.46988
upperneck 42.2742 6.96148 -1.14409
head 17.7856 1.22135 2.45002
rclavicle 2.26615e-014 5.56597e-015
rhumerus -30.2805 -8.98183 -76.6173
rradius 34.6445
rwrist 20.3156
rhand -20.1871 2.17324
rfingers 7.12502
rthumb 6.15923 -27.7172
lclavicle 2.26615e-014 5.56597e-015
lhumerus -35.7841 16.3459 79.9399
lradius 28.4906
lwrist -6.96796
lhand -12.1496 27.8137
lfingers 7.12502
lthumb 13.9129 57.3282
rfemur -11.7796 -4.43965 17.5323
rtibia 44.2551
rfoot -18.2491 1.10344
rtoes -0.403381
lfemur -13.8068 -0.8371 -27.9634
ltibia 24.0055
lfoot -10.9982 -1.3131
ltoes -8.13543
727
root -1.41713 29.0241 -5.43413 4.85862 4.57531 3.85439
lowerback 2.68565 0.918623 -2.96111
upperback 0.295246 1.16066 1.75057
thorax -1.29799 0.600282 3.418
lowerneck -13.3728 1.87074 -9.43904
upperneck 42.2528 6.94579 -1.21318
head 17.7499 1.21485 2.40617
rclavicle 6.55989e-015 -3.81667e-014
rhumerus -30.2358 -9.02931 -76.506
rradius 34.522
rwrist 20.1545
rhand -20.2954 2.35579
rfingers 7.12502
rthumb 6.05466 -27.5377
lclavicle 6.55989e-015 -3.81667e-014
lhumerus -35.7106 16.0057 80.1606
lradius 28.7475
lwrist -6.70498
lhand -12.205 27.7409
lfingers 7.12502
lthumb 13.8594 57.2592
rfemur -12.9294 -4.55439 17.0174
rtibia 46.1104
rfoot -16.8755 1.36702
rtoes -0.648818
lfemur -13.7017 -0.516935 -28.2784
ltibia 23.7649
lfoot -11.0482 -1.4571
ltoes -7.76818
728
root -1.39143 29.028 -5.38819 5.04344 4.39742 4.02138
lowerback 2.26433 0.952221 -3.19408
upperback 0.332593 1.20978 1.71493
thorax -1.03148 0.620335 3.51759
lowerneck -13.2889 1.87019 -9.40072
upperneck 42.198 6.90478 -1.19885
head 17.6965 1.2118 2.39506
rclavicle 1.49089e-015 -1.27222e-014
rhumerus -30.2057 -9.18671 -76.4616
rradius 34.472
rwrist 20.0802
rhand -20.1559 1.74367
rfingers 7.12502
rthumb 6.18931 -28.1459
lclavicle 1.49089e-015 -1.27222e-014
lhumerus -35.6098 15.6798 80.3497
lradius 29.067
lwrist -6.46167
lhand -12.2198 27.7754
lfingers 7.12502
lthumb 13.8452 57.2946
rfemur -14.1283 -4.83086 16.5158
rtibia 48.0295
rfoot -15.5781 1.50668
rtoes -2.24705
lfemur -13.5672 -0.2466 -28.5753
ltibia 23.5115
lfoot -11.1406 -1.62722
ltoes -8.03258
729
root -1.37187 29.0249 -5.35607 5.06872 4.22098 4.21778
lowerback 2.22853 0.994134 -3.43417
upperback 0.374956 1.26023 1.63572
thorax -0.97554 0.644488 3.57049
lowerneck -13.374 1.83474 -9.44742
upperneck 42.2153 6.83148 -1.09278
head 17.7225 1.1854 2.44194
rclavicle -1.07344e-014 1.51076e-014
rhumerus -30.207 -9.3458 -76.4824
rradius 34.4608
rwrist 19.8772
rhand -20.1372 1.50776
rfingers 7.12502
rthumb 6.20733 -28.3813
lclavicle -1.07344e-014 1.51076e-014
lhumerus -35.5194 15.1169 80.5271
lradius 29.5006
lwrist -6.12473
lhand -12.1241 27.6525
lfingers 7.12502
lthumb 13.9374 57.1654
rfemur -15.2912 -4.88865 16.0298
rtibia 49.9759
rfoot -14.2881 1.3638
rtoes -3.73523
lfemur -13.357 0.0233577 -28.8749
ltibia 23.3017
lfoot -11.2033 -1.76519
ltoes -8.10353
730
root -1.35439 29.0201 -5.32592 5.0096 4.08262 4.37442
lowerback 2.37956 1.00534 -3.62837
upperback 0.377563 1.26476 1.56512
thorax -1.06051 0.648997 3.60446
lowerneck -13.3672 1.88 -9.39509
upperneck 42.2324 6.8643 -1.04957
head 17.7256 1.21146 2.45825
rclavicle -1.96797e-014 0
rhumerus -30.2083 -9.49346 -76.5218
rradius 34.3178
rwrist 19.5397
rhand -20.438 1.866
rfingers 7.12502
rthumb 5.91699 -28.0314
lclavicle -1.96797e-014 0
lhumerus -35.5505 14.5237 80.6288
lradius 29.9229
lwrist -5.7284
lhand -11.9917 27.3362
lfingers 7.12502
lthumb 14.065 56.8403
rfemur -16.3869 -4.80843 15.6056
rtibia 51.8946
rfoot -13.1199 1.0805
rtoes -5.41443
lfemur -13.1436 0.273969 -29.1064
ltibia 23.2339
lfoot -11.3365 -1.89526
ltoes -7.69717
731
root -1.34871 29.0107 -5.31054 4.71328 4.26398 4.37956
lowerback 3.00477 0.945319 -3.7532
upperback 0.368989 1.15972 1.56856
thorax -1.41297 0.604632 3.673
lowerneck -13.2658 1.94908 -9.33017
upperneck 42.2662 6.89826 -0.959319
head 17.7091 1.2486 2.4917
rclavicle -2.09718e-014 3.33958e-014
rhumerus -30.2745 -9.75761 -76.5003
rradius 34.3008
rwrist 19.6877
rhand -20.3847 1.88718
rfingers 7.12502
rthumb 5.96843 -28.0088
lclavicle -2.09718e-014 3.33958e-014
lhumerus -35.5851 14.025 80.7047
lradius 30.2498
lwrist -5.53081
lhand -12.0571 27.4967
lfingers 7.12502
lthumb 14.002 57.0052
rfemur -17.2456 -4.8106 15.4701
rtibia 53.7439
rfoot -12.1714 0.617882
rtoes -7.07566
lfemur -12.7713 0.344458 -29.0871
ltibia 23.2136
lfoot -11.3911 -2.09477
ltoes -7.37723
732
root -1.35503 28.9974 -5.31175 4.1572 4.6901 4.27373
lowerback 4.11676 0.842073 -3.8527
upperback 0.393047 0.979397 1.58895
thorax -1.99714 0.527447 3.74606
lowerneck -13.2587 1.95635 -9.23037
upperneck 42.3493 6.81411 -0.80219
head 17.7484 1.24652 2.53377
rclavicle 3.57812e-015 -1.59028e-014
rhumerus -30.3122 -10.0739 -76.5642
rradius 34.3548
rwrist 20.1338
rhand -20.5136 2.05007
rfingers 7.12502
rthumb 5.84393 -27.8493
lclavicle 3.57812e-015 -1.59028e-014
lhumerus -35.5371 13.5945 80.6656
lradius 30.5173
lwrist -5.45641
lhand -12.0212 27.7221
lfingers 7.12502
lthumb 14.0366 57.2282
rfemur -17.8596 -4.84232 15.5676
rtibia 55.4591
rfoot -11.4505 -0.0192172
rtoes -8.71703
lfemur -12.1652 0.36083 -28.8738
ltibia 23.0933
lfoot -11.3284 -2.44416
ltoes -7.71433
733
root -1.34671 28.9859 -5.28329 3.86448 4.89268 4.46453
lowerback 4.51028 0.757063 -4.12307
upperback 0.461902 0.83684 1.49294
thorax -2.13579 0.459983 3.80486
lowerneck -13.2068 1.97099 -9.07729
upperneck 42.3535 6.77799 -0.807288
head 17.7425 1.25503 2.49669
rclavicle -1.74931e-014 -9.54166e-015
rhumerus -30.2891 -10.1572 -76.7035
rradius 34.3526
rwrist 20.2011
rhand -21.0261 2.35359
rfingers 7.12502
rthumb 5.34914 -27.5589
lclavicle -1.74931e-014 -9.54166e-015
lhumerus -35.5483 13.0466 80.6542
lradius 30.9418
lwrist -5.14462
lhand -12.1435 27.9387
lfingers 7.12502
lthumb 13.9187 57.4529
rfemur -18.5342 -4.97383 15.1902
rtibia 56.9965
rfoot -10.7435 -0.193285
rtoes -11.5805
lfemur -11.5914 0.482806 -29.0843
ltibia 22.908
lfoot -11.3941 -2.84362
ltoes -7.7979
734
root -1.32279 28.9774 -5.22489 3.83144 4.87742 4.89267
lowerback 4.22434 0.667789 -4.55046
upperback 0.557427 0.708206 1.37959
thorax -1.86817 0.390399 3.9396
lowerneck -13.0521 2.01479 -9.08122
upperneck 42.2518 6.86544 -0.937262
head 17.648 1.28018 2.4445
rclavicle 1.88845e-015 -3.97569e-015
rhumerus -30.3262 -10.0945 -76.7698
rradius 34.4647
rwrist 20.2681
rhand -20.9696 2.0376
rfingers 7.12502
rthumb 5.40371 -27.8735
lclavicle 1.88845e-015 -3.97569e-015
lhumerus -35.6026 12.5687 80.7562
lradius 31.3668
lwrist -4.80662
lhand -12.2772 28.187
lfingers 7.12502
lthumb 13.7899 57.7099
rfemur -19.2606 -5.273 14.3814
rtibia 58.3513
rfoot -10.7999 0.429753
rtoes -11.0115
lfemur -11.1589 0.772544 -29.6799
ltibia 22.7459
lfoot -11.4646 -3.33708
ltoes -7.83985
735
root -1.30545 28.973 -5.1765 3.78669 4.92241 5.10356
lowerback 4.05946 0.552502 -4.82888
upperback 0.664874 0.550947 1.35377
thorax -1.65105 0.305721 4.0808
lowerneck -13.0729 2.12198 -9.03788
upperneck 42.1842 7.06469 -1.06612
head 17.6151 1.35222 2.41039
rclavicle -1.13307e-014 8.74653e-015
rhumerus -30.2429 -10.0371 -76.8476
rradius 34.578
rwrist 20.3696
rhand -20.4016 1.5221
rfingers 7.12502
rthumb 5.95212 -28.3743
lclavicle -1.13307e-014 8.74653e-015
lhumerus -35.4599 12.4047 80.7921
lradius 31.4893
lwrist -4.90633
lhand -12.3503 27.8489
lfingers 7.12502
lthumb 13.7194 57.3767
rfemur -20.0307 -5.4994 13.9177
rtibia 59.5358
rfoot -10.1195 1.18863
rtoes -9.26831
lfemur -10.9139 0.941449 -29.9994
ltibia 22.6819
lfoot -11.4811 -3.54227
ltoes -8.88348
736
root -1.3025 28.9697 -5.15341 3.68253 5.07787 5.06919
lowerback 4.34121 0.457184 -4.95528
upperback 0.660319 0.405077 1.39438
thorax -1.79921 0.237826 4.20203
lowerneck -13.1078 2.17432 -9.14391
upperneck 42.2691 7.15434 -0.97741
head 17.6586 1.3771 2.48737
rclavicle -1.83876e-014 -1.59028e-014
rhumerus -30.1864 -10.0222 -76.9242
rradius 34.6056
rwrist 20.2711
rhand -20.4236 1.68142
rfingers 7.12502
rthumb 5.93089 -28.2156
lclavicle -1.83876e-014 -1.59028e-014
lhumerus -35.3157 12.2639 80.7679
lradius 31.4691
lwrist -5.1378
lhand -12.5965 27.1849
lfingers 7.12502
lthumb 13.4822 56.7285
rfemur -20.9296 -5.49579 13.9269
rtibia 60.5997
rfoot -10.6782 1.52273
rtoes -9.24687
lfemur -10.8121 0.832284 -29.9285
ltibia 22.7762
lfoot -11.4742 -3.38461
ltoes -8.80637
